<svg xmlns="http://www.w3.org/2000/svg" viewBox="0 0 143.03 77.37"><defs><style>.cls-1{fill:#fbd600;}.cls-2{fill:#007ac0;}.cls-3{fill:#fff;}</style></defs><g id="Слой_2" data-name="Слой 2"><g id="Слой_1-2" data-name="Слой 1"><rect class="cls-1" x="1.3" width="141.73" height="42"/><path class="cls-2" d="M14.9,20.9v-.25a4.82,4.82,0,0,0,1.62-.28,2.21,2.21,0,0,0,1-.67,2.13,2.13,0,0,0,.44-1,7.23,7.23,0,0,0,.1-1.3V11.9Q17.95,6.59,13,6.59A5,5,0,0,0,9.19,7.91a5.46,5.46,0,0,0-1.3,4v4.7h3.93V11.9a3.54,3.54,0,0,1,.1-.85,1.29,1.29,0,0,1,.35-.59,1,1,0,0,1,.69-.22.92.92,0,0,1,.67.22,1.21,1.21,0,0,1,.3.61,3.83,3.83,0,0,1,.06.85c0,.31,0,.63,0,.95v4.3A1.91,1.91,0,0,1,13.18,19a2,2,0,0,1-2-.12V23a3.13,3.13,0,0,1,1.28-.3,1.88,1.88,0,0,1,.91.24,1.45,1.45,0,0,1,.55.55,1.24,1.24,0,0,1,.18.57V30.2a5.27,5.27,0,0,1-.08.95,1.21,1.21,0,0,1-.32.65,1.15,1.15,0,0,1-1.38,0,1.28,1.28,0,0,1-.35-.63,6,6,0,0,1-.12-1c0-.37,0-.76,0-1.2v-3.4H7.89L8,30a11.65,11.65,0,0,0,.37,2.93,3.85,3.85,0,0,0,.93,1.73,3.09,3.09,0,0,0,1.54.81,10.56,10.56,0,0,0,2.15.2,10.36,10.36,0,0,0,2.06-.2,4.32,4.32,0,0,0,1.75-.81A4.11,4.11,0,0,0,18,32.91,7.94,7.94,0,0,0,18.43,30V24.34a3.42,3.42,0,0,0-.85-2.53A4,4,0,0,0,14.9,20.9Z"/><path class="cls-2" d="M22.85,7l-2,28.37h4.05l.16-3.73h2.15l.16,3.73h4.06L29.65,7Zm2.43,20.5.77-15.92h.32l.69,15.92Z"/><polygon class="cls-2" points="40.68 7.04 38.2 7.04 36.62 7.04 34.15 7.04 34.15 35.41 38.2 35.41 38.2 11.21 40.68 11.21 40.68 35.41 44.73 35.41 44.73 7.04 44.32 7.04 40.68 7.04"/><polygon class="cls-2" points="54.54 7.04 52.02 27.22 51.74 27.22 52.1 7.04 48.05 7.04 48.05 35.41 52.1 35.41 52.1 35.37 54.7 15.14 54.98 15.14 54.58 35.41 58.63 35.41 58.63 7.04 54.58 7.04 54.54 7.04"/><path class="cls-2" d="M67.22,6.63a5.53,5.53,0,0,0-3.87,1.28A5.11,5.11,0,0,0,62,11.86V30a8.88,8.88,0,0,0,.39,2.89,3.52,3.52,0,0,0,2.81,2.54,11.85,11.85,0,0,0,2.23.2,8.89,8.89,0,0,0,2.17-.24,3.53,3.53,0,0,0,1.6-.88,4,4,0,0,0,1-1.74A10,10,0,0,0,72.49,30V27.26H68.6V29a9.82,9.82,0,0,1-.2,2.15,1,1,0,0,1-1.14.85,1.09,1.09,0,0,1-1.17-.85A7.64,7.64,0,0,1,65.84,29V12.83a6.35,6.35,0,0,1,.23-1.78,1.05,1.05,0,0,1,1.15-.77,1.07,1.07,0,0,1,1.16.75,6.71,6.71,0,0,1,.22,1.8v3.81h3.89V11.86a5.11,5.11,0,0,0-1.4-3.95A5.53,5.53,0,0,0,67.22,6.63Z"/><path class="cls-2" d="M76.79,7l-2,28.37h4L79,31.68h2.15l.16,3.73h4.06L83.59,7Zm2.43,20.5L80,11.62h.32L81,27.54Z"/><polygon class="cls-2" points="86.72 11.17 89.55 10.73 89.55 35.41 93.6 35.41 93.6 10.77 96.4 11.17 96.4 7.04 86.72 7.04 86.72 11.17"/><path class="cls-2" d="M108.23,19.56a3.24,3.24,0,0,0-1.13-.49A5.75,5.75,0,0,0,106,19a6.66,6.66,0,0,0-1.07.1c-.36.07-.69.15-1,.23s-.65.23-1,.36V7H98.91V35.41h5.76a5.21,5.21,0,0,0,3.6-1.06,3.64,3.64,0,0,0,1.18-2.87l0-9.16a3.64,3.64,0,0,0-.36-1.73A3,3,0,0,0,108.23,19.56Zm-2.71,10.13A2.59,2.59,0,0,1,105,31.6c-.36.35-1,.36-2,0V22.32a3.29,3.29,0,0,1,1.35-.23,1.22,1.22,0,0,1,.77.33,1.26,1.26,0,0,1,.35.61,2.93,2.93,0,0,1,.08.62Z"/><path class="cls-2" d="M117.68,6.63a5.53,5.53,0,0,0-3.87,1.28,5.07,5.07,0,0,0-1.4,3.95V30a9.19,9.19,0,0,0,.38,2.89,3.86,3.86,0,0,0,1.1,1.73,3.77,3.77,0,0,0,1.72.81,11.77,11.77,0,0,0,2.23.2,9,9,0,0,0,2.17-.24,3.64,3.64,0,0,0,1.6-.88,4,4,0,0,0,1-1.74,9.67,9.67,0,0,0,.34-2.81V27.26h-3.89V29a9.24,9.24,0,0,1-.2,2.15,1,1,0,0,1-1.13.85,1.09,1.09,0,0,1-1.18-.85A8.07,8.07,0,0,1,116.3,29V12.83a6.37,6.37,0,0,1,.22-1.78,1.26,1.26,0,0,1,2.31,0,6.33,6.33,0,0,1,.22,1.8v3.81h3.89V11.86a5.1,5.1,0,0,0-1.39-3.95A5.56,5.56,0,0,0,117.68,6.63Z"/><path class="cls-2" d="M130.69,7a5.28,5.28,0,0,0-3.61,1A3.65,3.65,0,0,0,125.9,11l0,12.81a3.81,3.81,0,0,0,.49,1.92,2.65,2.65,0,0,0,1.13,1,3.32,3.32,0,0,0,.78.3l-2.36,8.38h4.46l1.74-10h.29v10h4.05V7Zm1.7,17.55a3.47,3.47,0,0,1-1.36.22,1.25,1.25,0,0,1-.77-.33,1.14,1.14,0,0,1-.34-.6,2.51,2.51,0,0,1-.09-.63V12.75a2.61,2.61,0,0,1,.55-1.9c.37-.35,1-.37,2,0Z"/><path class="cls-3" d="M4.91,71.17H7.78v2a7.17,7.17,0,0,1-.25,2.08,3,3,0,0,1-.74,1.29,2.51,2.51,0,0,1-1.18.64,6.47,6.47,0,0,1-1.6.18,8.43,8.43,0,0,1-1.65-.15,2.78,2.78,0,0,1-1.27-.6,2.85,2.85,0,0,1-.81-1.27A6.69,6.69,0,0,1,0,73.21V59.8a3.76,3.76,0,0,1,1-2.92,4.08,4.08,0,0,1,2.86-.94,4.08,4.08,0,0,1,2.86.94,3.76,3.76,0,0,1,1,2.92v3.53H4.91V60.52a4.75,4.75,0,0,0-.17-1.34.78.78,0,0,0-.85-.55A.78.78,0,0,0,3,59.2a4.75,4.75,0,0,0-.17,1.32v12a5.9,5.9,0,0,0,.18,1.59.81.81,0,0,0,.87.63.77.77,0,0,0,.84-.63,7,7,0,0,0,.15-1.59Z"/><path class="cls-3" d="M16.49,59.29,14.43,59v18.2h-3V59l-2.09.33v-3h7.15Z"/><path class="cls-3" d="M25.29,77.19h-3l-.12-2.75H20.59l-.12,2.75h-3L19,56.24h5Zm-3.23-5.81-.51-11.76h-.24l-.57,11.76Z"/><path class="cls-3" d="M30.29,68.18v9h-3V56.24h4.25a3.93,3.93,0,0,1,2.66.77,2.72,2.72,0,0,1,.87,2.13l0,7.06a2.67,2.67,0,0,1-.27,1.28,2.15,2.15,0,0,1-.66.76,2.23,2.23,0,0,1-.84.36,4,4,0,0,1-.8.09,4.43,4.43,0,0,1-.8-.08,4.56,4.56,0,0,1-.73-.19A5.07,5.07,0,0,1,30.29,68.18Zm0-9.16V65.9a2.44,2.44,0,0,0,1,.17.89.89,0,0,0,.83-.69,2,2,0,0,0,.06-.46V60.46a1.93,1.93,0,0,0-.41-1.41C31.5,58.79,31,58.78,30.29,59Z"/><path class="cls-3" d="M44.12,59.29,42.06,59v18.2h-3V59L37,59.29v-3h7.15Z"/><path class="cls-3" d="M55.61,63.78a2.58,2.58,0,0,1,2.91,2.84v6.56a5.51,5.51,0,0,1-.35,2.15,3.18,3.18,0,0,1-.89,1.26,3,3,0,0,1-1.28.6,7.24,7.24,0,0,1-1.49.15,7.64,7.64,0,0,1-1.6-.15,2.59,2.59,0,0,1-1.2-.58A2.69,2.69,0,0,1,51,75.35a8.18,8.18,0,0,1-.28-2.17L50.62,70h2.84l0,2.51c0,.32,0,.62,0,.9a3.23,3.23,0,0,0,.09.7.77.77,0,0,0,.83.62.7.7,0,0,0,.79-.62,9.74,9.74,0,0,0,.11-1.6V67.61a4,4,0,0,0-.47-2.26c-.31-.43-.87-.57-1.69-.43L53.1,63l2.72-4.34H50.65l0-2.42h7.6v3.62L55.61,63.6Z"/><path class="cls-3" d="M70.58,71.17h2.87v2a7.17,7.17,0,0,1-.25,2.08,3,3,0,0,1-.73,1.29,2.6,2.6,0,0,1-1.19.64,6.41,6.41,0,0,1-1.6.18A8.32,8.32,0,0,1,68,77.22a2.77,2.77,0,0,1-1.28-.6,2.92,2.92,0,0,1-.8-1.27,6.65,6.65,0,0,1-.29-2.14V59.8a3.8,3.8,0,0,1,1-2.92,4.82,4.82,0,0,1,5.72,0,3.76,3.76,0,0,1,1,2.92v3.53H70.58V60.52a4.78,4.78,0,0,0-.16-1.34.8.8,0,0,0-.86-.55.78.78,0,0,0-.85.57,4.77,4.77,0,0,0-.16,1.32v12a5.9,5.9,0,0,0,.18,1.59.8.8,0,0,0,.86.63.77.77,0,0,0,.84-.63,7,7,0,0,0,.15-1.59Z"/><path class="cls-3" d="M75.61,56.24h3V77.19h-3Zm6.23,3-5.69-1.08-.24-2h6.88Zm-5.93,17.9.24-2,5.69-1.07,1,3Zm5.33-9.49H76.42v-3h4.82Z"/><path class="cls-3" d="M84.65,56.24h3V77.19h-3ZM91.53,71.8H85.85v-3h5.68ZM89.47,56.24h3V77.19h-3Z"/><path class="cls-3" d="M101.47,59.29,99.41,59v18.2h-3V59l-2.09.33v-3h7.15Z"/><path class="cls-3" d="M108.15,70.57v-.8H108c-.08,0-.15.06-.21.19a2.09,2.09,0,0,1-.27.42,2,2,0,0,1-.53.43,2.29,2.29,0,0,1-1,.27,2.66,2.66,0,0,1-.73,0,2.5,2.5,0,0,1-.74-.26,2,2,0,0,1-.83-.76,2.82,2.82,0,0,1-.36-1.42l0-9.46a2.72,2.72,0,0,1,.87-2.13,3.91,3.91,0,0,1,2.66-.77h4.25V77.19h-3Zm-2.58-1.25,2.37.45-1.29,7.42h-3.29ZM108.15,59c-.72-.24-1.22-.23-1.48,0a1.93,1.93,0,0,0-.41,1.41v7.75a2,2,0,0,0,.06.46.94.94,0,0,0,.26.45.91.91,0,0,0,.56.24,2.44,2.44,0,0,0,1-.16Z"/><path class="cls-3" d="M116.59,62.76a5,5,0,0,1,.57-.27,5.74,5.74,0,0,1,.63-.16,3.5,3.5,0,0,1,.74-.08,4.93,4.93,0,0,1,.86.09,2.77,2.77,0,0,1,.94.36,2.33,2.33,0,0,1,.76.77,2.3,2.3,0,0,1,.32,1.27l0,9.55a2.71,2.71,0,0,1-.87,2.12,3.89,3.89,0,0,1-2.66.78h-4.26V56.24h7.79l-1,3-3.83-.6Zm0,11.65c.72.24,1.21.23,1.48,0a1.93,1.93,0,0,0,.4-1.41V65.73a2.09,2.09,0,0,0-.06-.47.92.92,0,0,0-.25-.45.94.94,0,0,0-.57-.24,2.44,2.44,0,0,0-1,.17Z"/><path class="cls-3" d="M126.65,68.18v9h-3V56.24h4.25a4,4,0,0,1,2.67.77,2.72,2.72,0,0,1,.87,2.13l0,7.06a2.67,2.67,0,0,1-.27,1.28,2.15,2.15,0,0,1-.66.76,2.23,2.23,0,0,1-.84.36,4.17,4.17,0,0,1-.81.09,4.32,4.32,0,0,1-.79-.08,4.69,4.69,0,0,1-.74-.19A5,5,0,0,1,126.65,68.18Zm0-9.16V65.9a2.42,2.42,0,0,0,1,.17.94.94,0,0,0,.57-.24.92.92,0,0,0,.25-.45,2,2,0,0,0,.06-.46V60.46a1.93,1.93,0,0,0-.4-1.41C127.86,58.79,127.36,58.78,126.65,59Z"/><path class="cls-3" d="M138.74,70.57v-.8h-.18c-.08,0-.15.06-.21.19a2.09,2.09,0,0,1-.27.42,2,2,0,0,1-.52.43,2.34,2.34,0,0,1-1,.27,2.66,2.66,0,0,1-.73,0,2.43,2.43,0,0,1-.73-.26,2,2,0,0,1-.84-.76,2.82,2.82,0,0,1-.36-1.42l0-9.46a2.72,2.72,0,0,1,.87-2.13,3.93,3.93,0,0,1,2.66-.77h4.25V77.19h-3Zm-2.58-1.25,2.37.45-1.29,7.42H134ZM138.74,59c-.72-.24-1.21-.23-1.48,0a1.93,1.93,0,0,0-.41,1.41v7.75a2,2,0,0,0,.06.46.89.89,0,0,0,.83.69,2.4,2.4,0,0,0,1-.16Z"/></g></g></svg>