<svg width="715" height="530" viewBox="0 0 715 530" fill="none" xmlns="http://www.w3.org/2000/svg">
<mask id="mask0_408_164" style="mask-type:alpha" maskUnits="userSpaceOnUse" x="0" y="0" width="715" height="530">
<rect width="715" height="530" fill="#D9D9D9"/>
</mask>
<g mask="url(#mask0_408_164)">
<path d="M544.18 46.6002L708.32 592.06C716.84 620.36 710.93 647.16 695.13 651.93L215.46 796.47C199.65 801.23 179.94 782.14 171.41 753.83L7.16997 208.21C-1.35003 179.9 4.54997 153.09 20.36 148.33L500.14 4.00015C516 -0.799847 535.66 18.2902 544.18 46.6002Z" fill="#D6DEF2"/>
<path d="M216.26 799.14C207.6 801.74 197.84 798.34 188.76 789.56C180.11 781.18 173 768.78 168.76 754.64L4.49005 209C0.240055 194.87 -0.679945 180.6 1.91005 168.83C4.63005 156.49 10.9101 148.26 19.5501 145.66L499.34 1.27982C516.88 -4.00018 537.76 15.5498 546.86 45.7898L711 591.26C720.09 621.49 713.48 649.26 695.94 654.6L216.26 799.14ZM21.1601 151C14.5301 153 9.63005 159.76 7.37005 170C5.00005 180.89 5.85005 194.16 9.84005 207.4L174.09 753C178.09 766.24 184.67 777.79 192.65 785.51C200.2 792.83 208.02 795.76 214.65 793.76L694.33 649.25C708.39 645.02 713.57 619.19 705.65 592.86L541.51 47.3998C533.58 21.0698 515 2.39982 501 6.62982L21.1601 151Z" fill="#B1C2E5"/>
<path d="M543.94 45.81L7 207.39C-1.39 179.52 4.42 153.13 20 148.44L500.58 3.82003C516.14 -0.859973 535.58 17.94 543.94 45.82V45.81Z" fill="#3979BD"/>
<path d="M547.8 47.8798L4.91009 211.25L4.02009 208.25C-4.97991 178.25 1.62009 150.71 19.0901 145.45L499.69 0.859784C517.15 -4.40022 537.89 14.9598 546.91 44.9198L547.8 47.8798ZM9.11009 203.52L540 43.7598C531.8 19.5798 514.57 2.82978 501.43 6.75978L20.8701 151.41C7.73009 155.36 2.60009 178.83 9.11009 203.52Z" fill="#3979BD"/>
<path d="M35.8201 171.84C36.8201 175.29 35.5701 178.73 32.9501 179.52C30.3301 180.31 27.3601 178.15 26.3301 174.7C25.3001 171.25 26.5701 167.81 29.1901 167.03C31.8101 166.25 34.7801 168.39 35.8201 171.84Z" fill="white"/>
<path d="M50.6399 167.38C51.6399 170.83 50.3899 174.27 47.7699 175.06C45.1499 175.85 42.1799 173.69 41.1499 170.24C40.1199 166.79 41.3899 163.35 44.0099 162.57C46.6299 161.79 49.5999 163.93 50.6399 167.38Z" fill="white"/>
<path d="M65.4601 162.92C66.4601 166.37 65.2101 169.81 62.5901 170.6C59.9701 171.39 57.0001 169.23 56.0001 165.78C55.0001 162.33 56.2401 158.89 58.8601 158.11C61.4801 157.33 64.4201 159.47 65.4601 162.92Z" fill="white"/>
<path d="M329.802 159.009L58.7897 240.574C52.3906 242.5 48.7644 249.249 50.6903 255.648L109.592 451.356C111.518 457.755 118.267 461.381 124.666 459.456L395.677 377.89C402.077 375.964 405.703 369.216 403.777 362.816L344.875 167.108C342.949 160.709 336.201 157.083 329.802 159.009Z" fill="white"/>
<path d="M396.07 379.26L125.07 460.81C121.647 461.841 117.956 461.473 114.804 459.785C111.653 458.098 109.3 455.23 108.26 451.81L49.3501 256.06C48.3246 252.638 48.6957 248.948 50.3821 245.798C52.0685 242.649 54.9332 240.294 58.3501 239.25L329.35 157.7C332.773 156.669 336.464 157.038 339.616 158.725C342.767 160.412 345.12 163.28 346.16 166.7L405.06 362.42C406.095 365.845 405.73 369.541 404.045 372.698C402.36 375.854 399.492 378.214 396.07 379.26V379.26ZM59.1901 241.93C56.469 242.744 54.1829 244.606 52.8345 247.106C51.4862 249.606 51.186 252.539 52.0001 255.26L110.92 451C111.739 453.718 113.602 455.999 116.102 457.343C118.601 458.688 121.532 458.985 124.25 458.17L395.25 376.62C397.967 375.797 400.246 373.931 401.59 371.431C402.934 368.931 403.232 366 402.42 363.28L343.52 167.57C342.699 164.854 340.835 162.575 338.337 161.231C335.838 159.887 332.909 159.588 330.19 160.4L59.1901 241.93Z" fill="#E5EAF7"/>
<path d="M344.66 166.43L50.4801 255C49.6122 252.116 49.9253 249.005 51.3505 246.352C52.7757 243.698 55.1963 241.719 58.0801 240.85L330.51 158.85C331.939 158.419 333.439 158.274 334.923 158.424C336.408 158.573 337.849 159.014 339.163 159.721C340.478 160.427 341.64 161.387 342.583 162.543C343.526 163.699 344.232 165.031 344.66 166.46V166.43Z" fill="#3979BD"/>
<path d="M346.4 167.36L49.54 256.69L49.14 255.36C48.1664 252.12 48.5191 248.627 50.1205 245.647C51.7219 242.667 54.441 240.446 57.68 239.47L330.11 157.47C333.348 156.496 336.841 156.847 339.82 158.447C342.8 160.046 345.022 162.763 346 166L346.4 167.36ZM51.5 253.19L342.83 165.52C341.817 163.347 340.057 161.611 337.871 160.627C335.685 159.643 333.218 159.477 330.92 160.16L58.48 242.16C56.1883 242.858 54.2231 244.355 52.9421 246.379C51.6611 248.403 51.1494 250.82 51.5 253.19V253.19Z" fill="#3979BD"/>
<path d="M331.23 167.75L334.888 166.649C335.496 166.466 335.841 165.824 335.658 165.216L334.557 161.558C334.374 160.95 333.732 160.605 333.124 160.788L329.466 161.889C328.858 162.072 328.514 162.714 328.697 163.322L329.797 166.98C329.981 167.588 330.622 167.933 331.23 167.75Z" fill="#BECCEA"/>
<path d="M331.18 167.15C331.092 167.178 331 167.186 330.909 167.176C330.817 167.166 330.729 167.137 330.65 167.09C330.569 167.048 330.496 166.99 330.438 166.92C330.38 166.849 330.336 166.768 330.31 166.68C330.284 166.592 330.276 166.5 330.286 166.409C330.296 166.318 330.325 166.23 330.37 166.15L332.76 161.7C332.802 161.619 332.86 161.547 332.93 161.488C333.001 161.429 333.082 161.385 333.169 161.358C333.257 161.331 333.349 161.322 333.44 161.331C333.531 161.34 333.619 161.367 333.7 161.41C333.787 161.454 333.865 161.516 333.927 161.591C333.99 161.666 334.036 161.753 334.063 161.847C334.09 161.941 334.098 162.039 334.085 162.136C334.073 162.233 334.04 162.326 333.99 162.41L331.6 166.86C331.499 167.004 331.35 167.107 331.18 167.15V167.15Z" fill="white"/>
<path d="M334.6 166.12C334.512 166.147 334.42 166.156 334.329 166.146C334.237 166.136 334.149 166.106 334.07 166.06L329.62 163.67C329.539 163.628 329.466 163.57 329.408 163.5C329.35 163.429 329.306 163.347 329.28 163.26C329.254 163.172 329.245 163.08 329.256 162.989C329.266 162.898 329.295 162.81 329.34 162.73C329.382 162.649 329.44 162.577 329.51 162.518C329.581 162.459 329.662 162.415 329.749 162.388C329.837 162.361 329.929 162.352 330.02 162.361C330.111 162.37 330.199 162.397 330.28 162.44L334.73 164.84C334.811 164.882 334.883 164.94 334.942 165.01C335.001 165.081 335.045 165.162 335.072 165.249C335.099 165.337 335.108 165.429 335.099 165.52C335.09 165.611 335.063 165.699 335.02 165.78C334.929 165.943 334.778 166.065 334.6 166.12V166.12Z" fill="white"/>
<path d="M100.27 259.8L71.2699 268.53C71.1805 268.561 71.0857 268.574 70.9912 268.568C70.8967 268.562 70.8045 268.536 70.7201 268.493C70.6357 268.45 70.561 268.39 70.5003 268.318C70.4397 268.245 70.3945 268.16 70.3674 268.07C70.3403 267.979 70.3319 267.884 70.3427 267.79C70.3535 267.695 70.3833 267.604 70.4303 267.522C70.4773 267.44 70.5405 267.368 70.616 267.311C70.6916 267.254 70.778 267.213 70.8699 267.19L99.8699 258.46C100.045 258.417 100.229 258.442 100.385 258.532C100.542 258.621 100.657 258.767 100.709 258.939C100.76 259.112 100.743 259.297 100.662 259.457C100.58 259.618 100.44 259.74 100.27 259.8V259.8Z" fill="#E5EAF7"/>
<path d="M149.05 421.9L120.05 430.62C119.963 430.648 119.871 430.658 119.779 430.65C119.688 430.641 119.599 430.615 119.518 430.572C119.437 430.53 119.366 430.471 119.308 430.4C119.25 430.329 119.206 430.248 119.18 430.16C119.127 429.982 119.147 429.791 119.235 429.628C119.323 429.465 119.472 429.343 119.65 429.29L148.65 420.56C148.739 420.529 148.834 420.516 148.929 420.522C149.023 420.528 149.115 420.554 149.2 420.597C149.284 420.64 149.359 420.7 149.419 420.772C149.48 420.845 149.525 420.93 149.552 421.02C149.58 421.111 149.588 421.206 149.577 421.3C149.566 421.395 149.536 421.485 149.489 421.568C149.443 421.65 149.379 421.722 149.304 421.779C149.228 421.836 149.142 421.877 149.05 421.9V421.9Z" fill="#E5EAF7"/>
<path d="M120.05 430.62C119.963 430.648 119.871 430.658 119.779 430.65C119.688 430.642 119.599 430.615 119.518 430.572C119.438 430.53 119.366 430.471 119.308 430.4C119.25 430.33 119.206 430.248 119.18 430.16L70.3999 268.06C70.3567 267.885 70.3823 267.701 70.4716 267.545C70.5608 267.388 70.7068 267.273 70.8792 267.221C71.0516 267.17 71.2372 267.187 71.3974 267.268C71.5577 267.35 71.6803 267.49 71.7399 267.66L120.52 429.76C120.546 429.847 120.554 429.939 120.545 430.03C120.535 430.12 120.508 430.208 120.464 430.288C120.42 430.368 120.361 430.439 120.29 430.495C120.219 430.552 120.137 430.595 120.05 430.62V430.62Z" fill="#E5EAF7"/>
<path d="M116.58 271.08L92.8899 278.21C92.7153 278.253 92.5307 278.228 92.3745 278.139C92.2183 278.049 92.1024 277.903 92.051 277.731C91.9995 277.559 92.0164 277.373 92.0981 277.213C92.1799 277.052 92.3202 276.93 92.4899 276.87L116.18 269.74C116.355 269.697 116.539 269.723 116.695 269.812C116.852 269.901 116.967 270.047 117.019 270.22C117.07 270.392 117.053 270.577 116.972 270.738C116.89 270.898 116.75 271.021 116.58 271.08Z" fill="#E5EAF7"/>
<path d="M156.43 403.49L132.74 410.62C132.565 410.663 132.381 410.638 132.225 410.548C132.068 410.459 131.953 410.313 131.901 410.141C131.85 409.968 131.867 409.783 131.948 409.623C132.03 409.462 132.17 409.34 132.34 409.28L156 402.16C156.169 402.127 156.345 402.158 156.493 402.247C156.641 402.336 156.751 402.476 156.802 402.641C156.852 402.806 156.84 402.984 156.768 403.141C156.696 403.297 156.568 403.422 156.41 403.49H156.43Z" fill="#E5EAF7"/>
<path d="M132.74 410.62C132.562 410.673 132.371 410.653 132.208 410.565C132.045 410.477 131.923 410.327 131.87 410.15L92 277.74C91.9568 277.565 91.9824 277.381 92.0717 277.224C92.1609 277.068 92.3069 276.952 92.4793 276.901C92.6517 276.849 92.8372 276.866 92.9975 276.948C93.1578 277.03 93.2804 277.17 93.34 277.34L133.19 409.75C133.244 409.925 133.227 410.114 133.143 410.277C133.058 410.439 132.914 410.562 132.74 410.62Z" fill="#E5EAF7"/>
<path d="M137.07 286.41L120.43 291.41C120.254 291.463 120.063 291.444 119.901 291.357C119.739 291.27 119.618 291.121 119.565 290.945C119.512 290.769 119.531 290.579 119.618 290.416C119.706 290.254 119.854 290.133 120.03 290.08L136.67 285.08C136.845 285.037 137.029 285.063 137.186 285.152C137.342 285.241 137.458 285.387 137.509 285.559C137.56 285.732 137.544 285.917 137.462 286.078C137.38 286.238 137.24 286.361 137.07 286.42V286.41Z" fill="#E5EAF7"/>
<path d="M165.05 379.41L148.42 384.41C148.242 384.463 148.051 384.443 147.888 384.355C147.725 384.267 147.603 384.118 147.55 383.94C147.497 383.765 147.516 383.576 147.602 383.415C147.688 383.254 147.835 383.133 148.01 383.08L164.65 378.08C164.739 378.049 164.834 378.036 164.929 378.042C165.023 378.048 165.115 378.074 165.2 378.117C165.284 378.16 165.359 378.22 165.42 378.292C165.48 378.365 165.525 378.45 165.553 378.54C165.58 378.631 165.588 378.726 165.577 378.82C165.566 378.915 165.537 379.006 165.49 379.088C165.443 379.17 165.379 379.242 165.304 379.299C165.228 379.356 165.142 379.397 165.05 379.42V379.41Z" fill="#E5EAF7"/>
<path d="M148.42 384.41C148.242 384.463 148.051 384.443 147.888 384.355C147.725 384.267 147.603 384.118 147.55 383.94L119.55 290.94C119.497 290.762 119.517 290.571 119.605 290.408C119.693 290.245 119.842 290.123 120.02 290.07C120.107 290.042 120.199 290.032 120.291 290.04C120.382 290.049 120.47 290.075 120.551 290.118C120.632 290.16 120.704 290.219 120.762 290.29C120.82 290.361 120.864 290.442 120.89 290.53L148.89 383.53C148.919 383.619 148.93 383.712 148.922 383.805C148.914 383.898 148.887 383.988 148.843 384.07C148.799 384.153 148.739 384.225 148.666 384.284C148.594 384.342 148.51 384.385 148.42 384.41V384.41Z" fill="#E5EAF7"/>
<path d="M167.39 378.7C167.303 378.726 167.211 378.734 167.12 378.725C167.03 378.715 166.942 378.688 166.862 378.644C166.782 378.6 166.711 378.541 166.654 378.47C166.598 378.399 166.555 378.317 166.53 378.23L145.92 309.76C145.867 309.582 145.887 309.391 145.975 309.228C146.063 309.065 146.212 308.943 146.39 308.89C146.477 308.862 146.569 308.852 146.66 308.86C146.752 308.868 146.84 308.895 146.921 308.937C147.002 308.98 147.074 309.039 147.132 309.11C147.19 309.18 147.234 309.262 147.26 309.35L167.86 377.83C167.913 378.007 167.893 378.199 167.805 378.362C167.717 378.525 167.567 378.647 167.39 378.7V378.7Z" fill="#E5EAF7"/>
<path d="M131.765 243.78L77.4807 260.118C76.5976 260.384 76.0971 261.315 76.3629 262.198L78.6079 269.658C78.8737 270.541 79.8052 271.041 80.6884 270.776L134.973 254.438C135.856 254.172 136.357 253.24 136.091 252.357L133.846 244.898C133.58 244.015 132.649 243.514 131.765 243.78Z" fill="#BAC9E8"/>
<path d="M158.982 252.313L104.697 268.651C103.814 268.917 103.313 269.848 103.579 270.731L105.824 278.191C106.09 279.074 107.021 279.575 107.905 279.309L162.189 262.971C163.073 262.705 163.573 261.774 163.307 260.891L161.062 253.431C160.796 252.548 159.865 252.047 158.982 252.313Z" fill="#8CA8D8"/>
<path d="M142.158 278.318L127.028 282.872C126.145 283.138 125.645 284.069 125.91 284.952L128.156 292.412C128.421 293.295 129.353 293.795 130.236 293.53L145.366 288.976C146.249 288.71 146.749 287.779 146.483 286.896L144.238 279.436C143.973 278.553 143.041 278.052 142.158 278.318Z" fill="#7FA0D3"/>
<path d="M191.085 242.66L175.955 247.213C175.072 247.479 174.572 248.41 174.837 249.293L177.083 256.753C177.348 257.636 178.28 258.137 179.163 257.871L194.293 253.317C195.176 253.051 195.676 252.12 195.41 251.237L193.165 243.777C192.9 242.894 191.968 242.394 191.085 242.66Z" fill="#7FA0D3"/>
<path d="M255.112 294.499L239.982 299.053C239.099 299.319 238.598 300.25 238.864 301.133L241.109 308.593C241.375 309.476 242.306 309.976 243.19 309.711L258.319 305.157C259.202 304.891 259.703 303.96 259.437 303.077L257.192 295.617C256.926 294.734 255.995 294.234 255.112 294.499Z" fill="#7FA0D3"/>
<path d="M281.76 286.489L266.63 291.043C265.747 291.308 265.246 292.24 265.512 293.123L267.757 300.583C268.023 301.466 268.954 301.966 269.838 301.7L284.967 297.147C285.85 296.881 286.351 295.95 286.085 295.066L283.84 287.607C283.574 286.724 282.643 286.223 281.76 286.489Z" fill="#7FA0D3"/>
<path d="M307.248 278.808L292.118 283.362C291.235 283.628 290.734 284.559 291 285.442L293.245 292.902C293.511 293.785 294.442 294.286 295.326 294.02L310.455 289.466C311.338 289.2 311.839 288.269 311.573 287.386L309.328 279.926C309.062 279.043 308.131 278.543 307.248 278.808Z" fill="#7FA0D3"/>
<path d="M222.845 377.836L207.677 382.418C206.792 382.685 206.291 383.62 206.559 384.505L208.818 391.983C209.085 392.869 210.02 393.37 210.905 393.102L226.073 388.52C226.959 388.253 227.459 387.318 227.192 386.433L224.933 378.954C224.665 378.069 223.731 377.568 222.845 377.836Z" fill="#7FA0D3"/>
<path d="M173.175 370.413L158.046 374.967C157.162 375.233 156.662 376.164 156.928 377.047L159.173 384.507C159.439 385.39 160.37 385.891 161.253 385.625L176.383 381.071C177.266 380.805 177.767 379.874 177.501 378.991L175.256 371.531C174.99 370.648 174.058 370.148 173.175 370.413Z" fill="#7FA0D3"/>
<path d="M167.346 348.128L152.178 352.71C151.293 352.977 150.792 353.912 151.059 354.797L153.319 362.275C153.586 363.161 154.521 363.662 155.406 363.394L170.574 358.812C171.46 358.545 171.96 357.61 171.693 356.725L169.434 349.246C169.166 348.361 168.232 347.86 167.346 348.128Z" fill="#7FA0D3"/>
<path d="M159.033 323.422L143.903 327.976C143.02 328.242 142.519 329.173 142.785 330.056L145.03 337.516C145.296 338.399 146.228 338.899 147.111 338.633L162.24 334.08C163.124 333.814 163.624 332.883 163.358 332L161.113 324.54C160.847 323.657 159.916 323.156 159.033 323.422Z" fill="#7FA0D3"/>
<path d="M152.564 301.939L137.434 306.492C136.551 306.758 136.051 307.69 136.316 308.573L138.562 316.032C138.827 316.915 139.759 317.416 140.642 317.15L155.772 312.597C156.655 312.331 157.155 311.399 156.889 310.516L154.644 303.057C154.379 302.174 153.447 301.673 152.564 301.939Z" fill="#7FA0D3"/>
<path d="M186.415 387.613L144.311 400.285C143.427 400.551 142.927 401.482 143.193 402.365L145.438 409.825C145.704 410.708 146.635 411.208 147.518 410.943L189.623 398.271C190.506 398.005 191.006 397.073 190.74 396.19L188.495 388.731C188.23 387.847 187.298 387.347 186.415 387.613Z" fill="#8CA8D8"/>
<path d="M155.417 413.434L129.878 421.12C128.995 421.386 128.495 422.318 128.761 423.201L131.006 430.66C131.271 431.543 132.203 432.044 133.086 431.778L158.625 424.092C159.508 423.826 160.008 422.895 159.742 422.011L157.497 414.552C157.232 413.669 156.3 413.168 155.417 413.434Z" fill="#BAC9E8"/>
<path d="M243.176 210.247L144.536 239.934C143.653 240.2 143.152 241.131 143.418 242.014L145.663 249.474C145.929 250.357 146.861 250.857 147.744 250.592L246.383 220.904C247.266 220.639 247.767 219.707 247.501 218.824L245.256 211.365C244.99 210.481 244.059 209.981 243.176 210.247Z" fill="#8CA8D8"/>
<path d="M275.531 314.711L176.892 344.398C176.008 344.664 175.508 345.595 175.774 346.479L178.019 353.938C178.285 354.821 179.216 355.322 180.099 355.056L278.739 325.369C279.622 325.103 280.122 324.172 279.857 323.288L277.611 315.829C277.346 314.946 276.414 314.445 275.531 314.711Z" fill="#BAC9E8"/>
<path d="M225.478 303.431L169.623 320.241C168.74 320.507 168.239 321.439 168.505 322.322L170.75 329.781C171.016 330.664 171.947 331.165 172.83 330.899L228.686 314.089C229.569 313.823 230.069 312.891 229.803 312.008L227.558 304.549C227.293 303.666 226.361 303.165 225.478 303.431Z" fill="#BAC9E8"/>
<path d="M261.788 269.058L163.148 298.745C162.265 299.011 161.765 299.942 162.03 300.825L164.275 308.285C164.541 309.168 165.473 309.668 166.356 309.403L264.995 279.715C265.878 279.45 266.379 278.518 266.113 277.635L263.868 270.176C263.602 269.292 262.671 268.792 261.788 269.058Z" fill="#BAC9E8"/>
<path d="M331.413 183.696L265.034 203.673C264.151 203.939 263.65 204.871 263.916 205.754L266.161 213.213C266.427 214.097 267.358 214.597 268.242 214.331L334.62 194.353C335.504 194.088 336.004 193.156 335.738 192.273L333.493 184.814C333.227 183.93 332.296 183.43 331.413 183.696Z" fill="#8CA8D8"/>
<path d="M552.049 261.298L316.391 332.223C311.351 333.74 308.495 339.055 310.012 344.095L351.904 483.288C353.421 488.328 358.736 491.184 363.776 489.667L599.434 418.742C604.474 417.225 607.33 411.91 605.813 406.87L563.921 267.677C562.404 262.637 557.089 259.781 552.049 261.298Z" fill="white"/>
<path d="M599.82 420.11L364.17 491C361.394 491.834 358.401 491.533 355.848 490.162C353.294 488.792 351.389 486.464 350.55 483.69L308.67 344.52C308.257 343.145 308.12 341.702 308.265 340.274C308.41 338.846 308.835 337.46 309.516 336.197C310.197 334.933 311.119 333.815 312.232 332.908C313.345 332.001 314.625 331.322 316 330.91L551.64 260C554.417 259.183 557.403 259.493 559.953 260.863C562.503 262.233 564.409 264.553 565.26 267.32L607.14 406.5C607.97 409.275 607.666 412.267 606.294 414.818C604.922 417.37 602.593 419.273 599.82 420.11V420.11ZM316.82 333.58C314.754 334.204 313.02 335.622 311.998 337.523C310.977 339.424 310.751 341.652 311.37 343.72L353.23 482.9C353.852 484.965 355.268 486.699 357.167 487.721C359.067 488.742 361.294 488.969 363.36 488.35L599 417.44C601.066 416.816 602.8 415.397 603.821 413.497C604.843 411.596 605.069 409.367 604.45 407.3L562.58 268.11C561.956 266.047 560.539 264.315 558.64 263.295C556.741 262.275 554.515 262.05 552.45 262.67L316.82 333.58Z" fill="#E5EAF7"/>
<path d="M563.53 266.41L309.61 342.81C309.301 341.783 309.197 340.705 309.304 339.638C309.412 338.571 309.729 337.536 310.237 336.591C310.745 335.646 311.434 334.811 312.265 334.133C313.096 333.455 314.053 332.948 315.08 332.64L553.35 260.94C554.378 260.63 555.456 260.526 556.524 260.634C557.592 260.741 558.628 261.058 559.573 261.566C560.519 262.074 561.355 262.763 562.033 263.594C562.712 264.425 563.221 265.382 563.53 266.41V266.41Z" fill="#3979BD"/>
<path d="M565.27 267.34L308.68 344.55L308.28 343.22C307.552 340.791 307.816 338.172 309.016 335.937C310.216 333.703 312.253 332.035 314.68 331.3L553 259.6C555.421 258.887 558.026 259.16 560.248 260.358C562.469 261.557 564.127 263.585 564.86 266L565.27 267.34ZM310.69 341L561.69 265.48C560.941 264.119 559.749 263.055 558.312 262.466C556.875 261.876 555.279 261.796 553.79 262.24L315.49 334C314.013 334.446 312.732 335.383 311.859 336.656C310.986 337.929 310.574 339.461 310.69 341V341Z" fill="#3979BD"/>
<path d="M551.939 267.955L555.281 266.949C555.757 266.806 556.027 266.304 555.883 265.828L555.131 263.328C554.988 262.852 554.486 262.583 554.01 262.726L550.668 263.732C550.192 263.875 549.922 264.377 550.066 264.853L550.818 267.352C550.961 267.828 551.463 268.098 551.939 267.955Z" fill="#BECCEA"/>
<path d="M552.08 267.66C551.981 267.687 551.877 267.694 551.775 267.678C551.674 267.662 551.577 267.626 551.49 267.57C551.41 267.518 551.341 267.451 551.288 267.373C551.234 267.294 551.197 267.206 551.178 267.112C551.16 267.019 551.16 266.923 551.179 266.83C551.198 266.737 551.236 266.648 551.29 266.57L553.51 263.23C553.558 263.147 553.624 263.074 553.702 263.018C553.781 262.962 553.87 262.923 553.965 262.904C554.059 262.885 554.157 262.887 554.251 262.908C554.345 262.93 554.433 262.972 554.51 263.03C554.592 263.079 554.663 263.146 554.719 263.224C554.774 263.303 554.812 263.392 554.831 263.486C554.85 263.58 554.849 263.677 554.828 263.771C554.807 263.864 554.767 263.953 554.71 264.03L552.5 267.38C552.398 267.52 552.249 267.62 552.08 267.66Z" fill="white"/>
<path d="M555 266.77C554.848 266.825 554.682 266.825 554.53 266.77L550.83 265.2C550.678 265.116 550.563 264.978 550.506 264.814C550.45 264.65 550.457 264.47 550.525 264.311C550.594 264.151 550.719 264.023 550.877 263.951C551.035 263.878 551.214 263.867 551.38 263.92L555.07 265.49C555.154 265.525 555.231 265.576 555.296 265.641C555.36 265.706 555.411 265.783 555.445 265.868C555.48 265.952 555.497 266.043 555.496 266.134C555.495 266.226 555.476 266.316 555.44 266.4C555.397 266.489 555.336 266.568 555.26 266.632C555.184 266.696 555.095 266.743 555 266.77Z" fill="white"/>
<path d="M338.964 346.584L334.09 348.051C333.27 348.298 332.806 349.163 333.053 349.982L334.52 354.856C334.766 355.676 335.631 356.141 336.451 355.894L341.325 354.427C342.144 354.18 342.609 353.316 342.362 352.496L340.895 347.622C340.648 346.802 339.784 346.338 338.964 346.584Z" fill="#7FA0D3"/>
<path d="M344.165 363.834L339.291 365.301C338.471 365.548 338.007 366.412 338.253 367.232L339.72 372.106C339.967 372.926 340.832 373.39 341.651 373.143L346.525 371.676C347.345 371.43 347.809 370.565 347.563 369.745L346.096 364.871C345.849 364.052 344.985 363.587 344.165 363.834Z" fill="#7FA0D3"/>
<path d="M349.697 382.21L344.823 383.677C344.004 383.924 343.539 384.789 343.786 385.608L345.253 390.482C345.499 391.302 346.364 391.767 347.184 391.52L352.058 390.053C352.877 389.806 353.342 388.942 353.095 388.122L351.628 383.248C351.382 382.428 350.517 381.964 349.697 382.21Z" fill="#7FA0D3"/>
<path d="M354.223 397.256L349.349 398.723C348.529 398.97 348.064 399.834 348.311 400.654L349.778 405.528C350.025 406.348 350.889 406.812 351.709 406.566L356.583 405.099C357.403 404.852 357.867 403.988 357.62 403.168L356.153 398.294C355.907 397.474 355.042 397.01 354.223 397.256Z" fill="#7FA0D3"/>
<path d="M359.526 414.881L354.652 416.348C353.832 416.595 353.367 417.459 353.614 418.279L355.081 423.153C355.328 423.973 356.192 424.437 357.012 424.191L361.886 422.724C362.706 422.477 363.17 421.613 362.924 420.793L361.457 415.919C361.21 415.099 360.345 414.635 359.526 414.881Z" fill="#7FA0D3"/>
<path d="M366.89 343.1L346.36 349.28C346.213 349.306 346.061 349.277 345.934 349.199C345.807 349.121 345.712 348.999 345.669 348.856C345.626 348.713 345.637 348.559 345.7 348.423C345.763 348.287 345.873 348.18 346.01 348.12L366.54 341.94C366.694 341.897 366.859 341.915 366.999 341.992C367.139 342.068 367.244 342.197 367.29 342.35C367.315 342.426 367.324 342.505 367.317 342.584C367.31 342.663 367.287 342.74 367.25 342.81C367.212 342.88 367.161 342.942 367.099 342.992C367.038 343.042 366.966 343.078 366.89 343.1V343.1Z" fill="#E5EAF7"/>
<path d="M401.42 457.84L380.89 464C380.736 464.043 380.572 464.025 380.431 463.948C380.291 463.871 380.186 463.743 380.14 463.59C380.117 463.514 380.109 463.435 380.117 463.356C380.124 463.278 380.147 463.201 380.184 463.132C380.222 463.062 380.272 463 380.333 462.95C380.394 462.9 380.464 462.863 380.54 462.84L401.07 456.66C401.224 456.616 401.389 456.635 401.529 456.711C401.669 456.788 401.774 456.917 401.82 457.07C401.848 457.146 401.859 457.228 401.854 457.309C401.849 457.391 401.826 457.47 401.789 457.542C401.751 457.615 401.699 457.679 401.636 457.73C401.572 457.781 401.499 457.818 401.42 457.84V457.84Z" fill="#E5EAF7"/>
<path d="M380.89 464C380.736 464.044 380.571 464.025 380.431 463.948C380.291 463.872 380.186 463.743 380.14 463.59L345.61 348.87C345.587 348.795 345.579 348.715 345.587 348.637C345.594 348.558 345.617 348.482 345.654 348.412C345.691 348.342 345.742 348.281 345.803 348.231C345.864 348.181 345.934 348.143 346.01 348.12C346.165 348.076 346.331 348.094 346.473 348.171C346.615 348.248 346.722 348.376 346.77 348.53L381.3 463.26C381.338 463.412 381.317 463.574 381.241 463.711C381.165 463.848 381.039 463.952 380.89 464V464Z" fill="#E5EAF7"/>
<path d="M392.483 330.463L362.54 339.475C361.244 339.865 360.51 341.231 360.9 342.527L361.848 345.677C362.238 346.973 363.605 347.707 364.9 347.317L394.844 338.305C396.139 337.915 396.874 336.549 396.484 335.253L395.536 332.103C395.146 330.807 393.779 330.073 392.483 330.463Z" fill="#BAC9E8"/>
<path opacity="0.8" d="M508.221 295.636L406.25 326.326C404.954 326.716 404.22 328.083 404.61 329.378L405.558 332.529C405.948 333.824 407.314 334.559 408.61 334.169L510.582 303.479C511.877 303.089 512.612 301.722 512.222 300.427L511.274 297.276C510.884 295.98 509.517 295.246 508.221 295.636Z" fill="#3B7ABD"/>
<path opacity="0.8" d="M518.606 330.148L416.634 360.838C415.339 361.228 414.604 362.594 414.994 363.89L415.943 367.04C416.333 368.336 417.699 369.07 418.995 368.68L520.966 337.99C522.262 337.6 522.996 336.234 522.606 334.938L521.658 331.788C521.268 330.492 519.902 329.758 518.606 330.148Z" fill="#3B7ABD"/>
<path opacity="0.8" d="M528.994 364.662L427.023 395.352C425.727 395.741 424.993 397.108 425.383 398.404L426.331 401.554C426.721 402.85 428.087 403.584 429.383 403.194L531.355 372.504C532.65 372.114 533.385 370.748 532.995 369.452L532.046 366.302C531.657 365.006 530.29 364.272 528.994 364.662Z" fill="#3B7ABD"/>
<path opacity="0.8" d="M539.379 399.173L437.407 429.863C436.112 430.253 435.377 431.62 435.767 432.915L436.716 436.066C437.105 437.361 438.472 438.096 439.768 437.706L541.739 407.016C543.035 406.626 543.769 405.259 543.379 403.964L542.431 400.813C542.041 399.518 540.675 398.783 539.379 399.173Z" fill="#3B7ABD"/>
<path d="M397.677 347.724L367.734 356.736C366.439 357.126 365.704 358.493 366.094 359.788L367.042 362.939C367.432 364.235 368.799 364.969 370.095 364.579L400.038 355.567C401.334 355.177 402.068 353.81 401.678 352.515L400.73 349.364C400.34 348.069 398.973 347.334 397.677 347.724Z" fill="#BAC9E8"/>
<path d="M402.872 364.986L372.928 373.998C371.633 374.388 370.898 375.754 371.288 377.05L372.237 380.201C372.626 381.496 373.993 382.23 375.289 381.841L405.232 372.829C406.528 372.439 407.262 371.072 406.872 369.776L405.924 366.626C405.534 365.33 404.167 364.596 402.872 364.986Z" fill="#BAC9E8"/>
<path d="M408.062 382.236L378.119 391.248C376.823 391.637 376.089 393.004 376.479 394.3L377.427 397.45C377.817 398.746 379.184 399.48 380.479 399.09L410.423 390.078C411.718 389.688 412.453 388.322 412.063 387.026L411.114 383.876C410.724 382.58 409.358 381.846 408.062 382.236Z" fill="#BAC9E8"/>
<path d="M414.993 399.73L384.974 408.798C383.675 409.191 382.94 410.562 383.332 411.861L384.286 415.019C384.679 416.318 386.05 417.053 387.349 416.661L417.368 407.592C418.667 407.2 419.402 405.829 419.009 404.53L418.055 401.371C417.663 400.072 416.292 399.338 414.993 399.73Z" fill="#BAC9E8"/>
<path d="M418.448 416.75L388.504 425.762C387.209 426.152 386.474 427.519 386.864 428.814L387.812 431.965C388.202 433.26 389.569 433.995 390.865 433.605L420.808 424.593C422.104 424.203 422.838 422.836 422.448 421.541L421.5 418.39C421.11 417.095 419.743 416.36 418.448 416.75Z" fill="#BAC9E8"/>
<path d="M423.642 434.002L393.698 443.014C392.403 443.404 391.668 444.771 392.058 446.066L393.007 449.217C393.397 450.512 394.763 451.247 396.059 450.857L426.002 441.845C427.298 441.455 428.032 440.088 427.642 438.793L426.694 435.642C426.304 434.347 424.937 433.612 423.642 434.002Z" fill="#BAC9E8"/>
<path d="M550.359 301.779L520.416 310.791C519.12 311.181 518.386 312.547 518.776 313.843L519.724 316.994C520.114 318.289 521.481 319.023 522.776 318.633L552.72 309.622C554.015 309.232 554.75 307.865 554.36 306.569L553.412 303.419C553.022 302.123 551.655 301.389 550.359 301.779Z" fill="#BAC9E8"/>
<path d="M560.745 336.293L530.801 345.305C529.506 345.695 528.771 347.062 529.161 348.357L530.11 351.508C530.5 352.803 531.866 353.538 533.162 353.148L563.105 344.136C564.401 343.746 565.135 342.379 564.745 341.084L563.797 337.933C563.407 336.638 562.04 335.903 560.745 336.293Z" fill="#BAC9E8"/>
<path d="M571.13 370.798L541.186 379.81C539.891 380.199 539.156 381.566 539.546 382.862L540.495 386.012C540.885 387.308 542.251 388.042 543.547 387.652L573.49 378.64C574.786 378.25 575.52 376.884 575.13 375.588L574.182 372.438C573.792 371.142 572.425 370.408 571.13 370.798Z" fill="#BAC9E8"/>
<path d="M431.219 417.054L157.584 499.409C151.729 501.171 148.412 507.345 150.174 513.199L198.815 674.818C200.577 680.673 206.752 683.99 212.606 682.228L486.242 599.873C492.096 598.111 495.414 591.937 493.652 586.083L445.01 424.464C443.248 418.609 437.074 415.292 431.219 417.054Z" fill="white"/>
<path d="M486.62 601.24L213 683.58C209.835 684.529 206.422 684.184 203.511 682.621C200.599 681.057 198.427 678.403 197.47 675.24L148.81 513.62C147.864 510.453 148.212 507.041 149.777 504.13C151.342 501.219 153.997 499.047 157.16 498.09L430.8 415.74C433.967 414.794 437.379 415.142 440.29 416.707C443.201 418.272 445.373 420.927 446.33 424.09L495 585.71C495.945 588.881 495.593 592.297 494.022 595.208C492.451 598.12 489.789 600.289 486.62 601.24V601.24ZM158 500.76C155.557 501.502 153.506 503.18 152.294 505.428C151.082 507.675 150.808 510.311 151.53 512.76L200.16 674.38C200.903 676.823 202.58 678.875 204.827 680.088C207.074 681.302 209.71 681.579 212.16 680.86L485.81 598.52C488.263 597.776 490.321 596.09 491.534 593.831C492.746 591.573 493.015 588.926 492.28 586.47L443.66 424.89C442.916 422.437 441.23 420.379 438.971 419.166C436.713 417.954 434.066 417.685 431.61 418.42L158 500.76Z" fill="#E5EAF7"/>
<path d="M444.54 423L149.7 511.7C149.34 510.507 149.218 509.255 149.343 508.015C149.467 506.775 149.834 505.571 150.424 504.473C151.014 503.376 151.814 502.405 152.78 501.617C153.745 500.828 154.856 500.238 156.05 499.88L432.72 416.63C433.914 416.27 435.168 416.15 436.409 416.275C437.65 416.401 438.854 416.77 439.952 417.362C441.05 417.954 442.021 418.756 442.808 419.724C443.595 420.691 444.184 421.805 444.54 423V423Z" fill="#3979BD"/>
<path d="M446.28 423.91L148.76 513.44L148.36 512.1C147.532 509.335 147.835 506.355 149.202 503.813C150.568 501.271 152.887 499.375 155.65 498.54L432.32 415.29C435.082 414.462 438.06 414.764 440.6 416.128C443.14 417.493 445.035 419.81 445.87 422.57L446.28 423.91ZM150.75 509.91L442.68 422.06C441.825 420.359 440.398 419.014 438.649 418.261C436.901 417.507 434.944 417.394 433.12 417.94L156.45 501.22C154.628 501.771 153.058 502.945 152.016 504.538C150.973 506.131 150.525 508.04 150.75 509.93V509.91Z" fill="#3979BD"/>
<path d="M431.08 424.763L434.949 423.599C435.504 423.432 435.819 422.846 435.651 422.291L434.781 419.399C434.614 418.844 434.028 418.529 433.473 418.696L429.605 419.861C429.049 420.028 428.735 420.613 428.902 421.169L429.772 424.06C429.939 424.616 430.525 424.93 431.08 424.763Z" fill="#BECCEA"/>
<path d="M431.21 424.32C431.113 424.35 431.01 424.357 430.909 424.342C430.809 424.326 430.713 424.288 430.63 424.23C430.546 424.182 430.474 424.116 430.418 424.038C430.362 423.959 430.323 423.87 430.304 423.775C430.285 423.68 430.287 423.583 430.308 423.489C430.33 423.395 430.371 423.307 430.43 423.23L433 419.34C433.045 419.253 433.108 419.177 433.185 419.116C433.262 419.055 433.351 419.01 433.446 418.986C433.541 418.961 433.64 418.957 433.737 418.974C433.834 418.99 433.926 419.026 434.008 419.081C434.089 419.135 434.159 419.206 434.211 419.289C434.264 419.371 434.299 419.464 434.313 419.561C434.327 419.658 434.321 419.757 434.295 419.852C434.268 419.946 434.222 420.034 434.16 420.11L431.59 424C431.506 424.149 431.371 424.263 431.21 424.32V424.32Z" fill="white"/>
<path d="M434.64 423.29C434.488 423.345 434.322 423.345 434.17 423.29L429.88 421.47C429.717 421.393 429.591 421.256 429.526 421.088C429.462 420.92 429.465 420.733 429.535 420.567C429.604 420.401 429.735 420.269 429.9 420.196C430.065 420.124 430.251 420.118 430.42 420.18L434.71 422.01C434.794 422.045 434.871 422.096 434.935 422.161C435 422.226 435.051 422.303 435.085 422.388C435.12 422.472 435.137 422.563 435.136 422.654C435.135 422.746 435.116 422.836 435.08 422.92C435.037 423.009 434.976 423.089 434.9 423.152C434.824 423.216 434.735 423.263 434.64 423.29V423.29Z" fill="white"/>
<path d="M274.036 506.986L200.437 529.137C199.411 529.446 198.83 530.528 199.139 531.554L201.228 538.496C201.537 539.522 202.619 540.104 203.645 539.795L277.244 517.644C278.27 517.335 278.851 516.253 278.542 515.227L276.453 508.285C276.144 507.259 275.062 506.678 274.036 506.986Z" fill="#BAC9E8"/>
<path opacity="0.8" d="M429.056 460.264L289.127 502.378C287.334 502.918 286.318 504.808 286.857 506.601L288.186 511.016C288.726 512.808 290.616 513.824 292.409 513.285L432.339 471.171C434.132 470.631 435.148 468.74 434.608 466.947L433.28 462.533C432.74 460.74 430.849 459.724 429.056 460.264Z" fill="#3B7ABD"/>
<path opacity="0.8" d="M421.602 488.372L296.084 526.149C294.386 526.66 293.424 528.45 293.935 530.148L295.367 534.907C295.878 536.605 297.668 537.567 299.366 537.056L424.885 499.279C426.582 498.768 427.544 496.978 427.033 495.28L425.601 490.521C425.09 488.823 423.3 487.861 421.602 488.372Z" fill="#3B7ABD"/>
<path opacity="0.8" d="M404.871 520.951L303.397 551.491C301.863 551.952 300.994 553.57 301.456 555.104L303.067 560.456C303.528 561.99 305.146 562.859 306.68 562.398L408.153 531.857C409.687 531.396 410.556 529.778 410.095 528.245L408.484 522.892C408.022 521.358 406.405 520.489 404.871 520.951Z" fill="#3B7ABD"/>
<path d="M520.37 80L43.6401 223.49C42.5142 223.829 41.2996 223.708 40.2635 223.152C39.2273 222.596 38.4545 221.651 38.1151 220.525C37.7756 219.399 37.8972 218.185 38.4533 217.148C39.0093 216.112 39.9542 215.339 41.0801 215L517.82 71.54C518.912 71.2969 520.055 71.4758 521.02 72.0407C521.986 72.6056 522.702 73.5148 523.024 74.5856C523.347 75.6565 523.253 76.8098 522.761 77.8141C522.268 78.8183 521.414 79.5992 520.37 80V80Z" fill="white"/>
</g>
</svg>
