<svg xmlns="http://www.w3.org/2000/svg" viewBox="0 0 708.67 704.99"><defs><style>.cls-1{fill:#e09d5e;}.cls-2{fill:#f0d514;}.cls-3{fill:#3879bd;}</style></defs><title>8Ресурс 15</title><g id="Слой_2" data-name="Слой 2"><g id="Слой_1-2" data-name="Слой 1"><polygon class="cls-1" points="708.67 365.29 678.56 495.91 550.49 535.17 520.42 665.75 392.27 704.99 422.34 574.42 294.24 613.68 324.31 483.12 452.38 443.85 482.48 313.19 610.63 273.98 580.52 404.61 708.67 365.29"/><polygon class="cls-2" points="708.67 365.29 580.52 404.61 610.63 273.98 708.67 365.29"/><polygon class="cls-1" points="640.66 143.42 610.63 273.98 512.51 182.66 640.66 143.42"/><polygon class="cls-2" points="640.66 143.42 512.51 182.66 610.63 273.98 482.48 313.19 384.43 221.89 256.25 261.14 158.22 169.83 286.32 130.57 188.28 39.27 316.35 0 414.47 91.33 542.58 52.09 640.66 143.42"/><polygon class="cls-3" points="482.48 313.19 452.38 443.85 354.34 352.55 384.43 221.89 482.48 313.19"/><polygon class="cls-2" points="452.38 443.85 324.31 483.12 226.19 391.79 354.34 352.55 452.38 443.85"/><polygon class="cls-3" points="422.34 574.42 392.27 704.99 294.24 613.68 422.34 574.42"/><polygon class="cls-1" points="384.43 221.89 354.34 352.55 226.19 391.79 256.25 261.14 384.43 221.89"/><polygon class="cls-3" points="324.31 483.12 294.24 613.68 196.13 522.36 166.08 652.89 68.05 561.59 98.08 431.02 0 339.69 30.07 209.07 128.16 300.48 158.22 169.83 256.25 261.14 226.19 391.79 324.31 483.12"/><polygon class="cls-1" points="294.24 613.68 166.08 652.89 196.13 522.36 294.24 613.68"/><polygon class="cls-3" points="286.32 130.57 158.22 169.83 188.28 39.27 286.32 130.57"/><polygon class="cls-2" points="158.22 169.83 128.16 300.48 30.07 209.07 158.22 169.83"/></g></g></svg>