<svg xmlns="http://www.w3.org/2000/svg" viewBox="0 0 170.08 44.12"><defs><style>.cls-1{fill:#007ac0;}</style></defs><g id="Слой_2" data-name="Слой 2"><g id="Слой_1-2" data-name="Слой 1"><path class="cls-1" d="M0,33.3H2.37v9H0Z"/><path class="cls-1" d="M4.28,33.3h7.45v1.76H9.2v7.27H6.82V35.06H4.28Z"/><path class="cls-1" d="M19.19,33.3H21.8l3.53,9.06H22.75l-2.23-6.1c0-.13-.08-.26-.11-.39l-.06-.39H20.3c0,.13,0,.26-.07.39a2.85,2.85,0,0,1-.11.39l-2.2,6.1H15.76Zm-.68,5.62h3.81l.5,1.69H18Z"/><path class="cls-1" d="M27.23,33.3h2.38v9H27.23Zm2.86,3.5,3-3.5h2.52l-4.66,5.26H28.58V36.8ZM30,38.45l1.61-1.58L36,42.33H33Z"/><path class="cls-1" d="M40.66,33.3h2.62l3.52,9.06H44.23L42,36.26a1.9,1.9,0,0,1-.11-.39c0-.13,0-.26-.07-.39h0l-.06.39a2.91,2.91,0,0,1-.12.39l-2.2,6.1H37.23ZM40,38.92H43.8l.5,1.69H39.5Z"/><path class="cls-1" d="M55.37,42.33h-5v1.79H48.07V40.57h9.55v3.55H55.37Zm1.13-9v9H54.13V35.06H51.56l-.11,2.83a11.1,11.1,0,0,1-.23,2,4.57,4.57,0,0,1-.66,1.48H48.47a6.07,6.07,0,0,0,.74-1.56,9.2,9.2,0,0,0,.26-2.1l.2-4.45Z"/><path class="cls-1" d="M59.52,33.3h6.35v1.76h-4v1.77h3.44v1.71H61.87v2h4.07v1.75H59.52Z"/><path class="cls-1" d="M67.85,33.3h3c.67,2,1.34,4,2,6.05h0c.67-2,1.35-4,2-6.05H78v9H75.67c0-2.08,0-4.16,0-6.23h0c-.68,2.07-1.35,4.15-2,6.23h-1.9q-1-3.12-2-6.23h0l0,6.23H67.85Z"/><path class="cls-1" d="M85.39,42.33V37c0-.19,0-.37,0-.53h0q-.12.24-.21.45l-.21.47-2.43,4.91H79.94v-9h2.38v5.3c0,.2,0,.37,0,.53h0c0-.12.11-.27.19-.43s.14-.33.22-.5l2.43-4.9h2.57v9Z"/><path class="cls-1" d="M92.17,42.33h-2.5l2.27-4.17h2.42Zm4.89,0H94.68v-3H92.57l-.42-.26a2.43,2.43,0,0,1-1.66-.9,3,3,0,0,1-.57-1.87,2.77,2.77,0,0,1,.9-2.19,3.81,3.81,0,0,1,2.58-.79h3.66Zm-2.38-4.7V35h-1a1.15,1.15,0,0,0-1.37,1.28,1.51,1.51,0,0,0,.3,1,1.31,1.31,0,0,0,1.07.36Z"/><path class="cls-1" d="M0,0H9A9,9,0,0,1,15.1,1.84a6.88,6.88,0,0,1,2.13,5.5,7,7,0,0,1-2.12,5.5A8.9,8.9,0,0,1,9,14.71H5.73v7.08H0ZM8.34,10.6a3.18,3.18,0,0,0,2.5-.79,3.71,3.71,0,0,0,.67-2.46,3.62,3.62,0,0,0-.67-2.42,3.26,3.26,0,0,0-2.5-.77H5.73V10.6Z"/><path class="cls-1" d="M51.17,0V17.56h5.2V0h5.74V17.56h5.2V0h5.75V21.79H45.43V0Z"/><path class="cls-1" d="M139.51,21.79V10.25c0-.37,0-.78,0-1.25s0-.89,0-1.28h-.11l-.49,1.1c-.15.34-.32.72-.52,1.13l-5.86,11.84h-6.21V0h5.75V11.54c0,.37,0,.79,0,1.27s0,.89,0,1.26h.12l.46-1c.17-.4.35-.8.54-1.19L139.05,0h6.21V21.79Z"/><path class="cls-1" d="M157.64,21.79h-6l5.48-10h5.84Zm12.44,0h-5.75V14.52h-5.1l-1-.63a5.83,5.83,0,0,1-4-2.19,7.22,7.22,0,0,1-1.38-4.5A6.68,6.68,0,0,1,155,1.91,9.17,9.17,0,0,1,161.23,0h8.85Zm-5.75-11.33V4.13h-2.47a3.32,3.32,0,0,0-2.59.83,3.3,3.3,0,0,0-.72,2.26,3.63,3.63,0,0,0,.72,2.36,3.18,3.18,0,0,0,2.59.88Z"/><polygon class="cls-1" points="38.91 4.21 39.08 4.21 39.08 0 38.91 0 26.84 0 23.57 0 23.57 21.79 39.08 21.79 39.08 17.59 29.25 17.59 29.25 12.66 37.55 12.66 37.55 8.52 29.25 8.52 29.25 4.21 38.91 4.21"/><polygon class="cls-1" points="94.74 4.21 94.91 4.21 94.91 0 94.74 0 82.67 0 79.4 0 79.4 21.79 94.91 21.79 94.91 17.59 85.08 17.59 85.08 12.66 93.38 12.66 93.38 8.52 85.08 8.52 85.08 4.21 94.74 4.21"/><polygon class="cls-1" points="114.29 0 114.29 8.82 106.98 8.82 106.98 0 101.25 0 101.25 21.79 106.98 21.79 106.98 12.97 114.29 12.97 114.29 21.79 120.01 21.79 120.01 0 114.29 0"/></g></g></svg>