<svg xmlns="http://www.w3.org/2000/svg" viewBox="0 0 21.02 20.17"><defs><style>.cls-1{fill:#007ac0;}</style></defs><g id="Слой_2" data-name="Слой 2"><g id="Слой_1-2" data-name="Слой 1"><path id="mail" class="cls-1" d="M14.14,10a3.77,3.77,0,0,0-3.93-3.72h-.08a3.73,3.73,0,0,0-3.73,4,3.65,3.65,0,0,0,3.73,3.92,3.92,3.92,0,0,0,4-3.77Zm-4-5.8A6,6,0,0,1,14.37,6h0a.87.87,0,0,1,.86-.93h.13a1,1,0,0,1,.94,1v8.3a.54.54,0,0,0,.9.47c1.34-1.37,2.93-7-.82-10.32a9,9,0,0,0-10.7-.84A8.08,8.08,0,0,0,3,13.35c1.8,4.15,6.94,5.39,10,4.16,1.55-.63,2.27,1.47.66,2.15-2.43,1-9.2.93-12.36-4.54A10,10,0,0,1,4.92,1.54,11.06,11.06,0,0,1,18.41,3.27C22,7,21.81,14.08,18.29,16.82A2.46,2.46,0,0,1,14.35,15v-.6a5.93,5.93,0,0,1-4.19,1.75,6.13,6.13,0,0,1-6-6,6.16,6.16,0,0,1,6-6h0"/></g></g></svg>