<svg width="256" height="256" viewBox="0 0 256 256" fill="none" xmlns="http://www.w3.org/2000/svg">
<path d="M148 156C164.974 156 181.253 149.257 193.255 137.255C205.257 125.253 212 108.974 212 92C212 75.0261 205.257 58.7475 193.255 46.7452C181.253 34.7428 164.974 28 148 28H88C84.8174 28 81.7652 29.2643 79.5147 31.5147C77.2643 33.7652 76 36.8174 76 40V132H56C52.8174 132 49.7652 133.264 47.5147 135.515C45.2643 137.765 44 140.817 44 144C44 147.183 45.2643 150.235 47.5147 152.485C49.7652 154.736 52.8174 156 56 156H76V172H56C52.8174 172 49.7652 173.264 47.5147 175.515C45.2643 177.765 44 180.817 44 184C44 187.183 45.2643 190.235 47.5147 192.485C49.7652 194.736 52.8174 196 56 196H76V216C76 219.183 77.2643 222.235 79.5147 224.485C81.7652 226.736 84.8174 228 88 228C91.1826 228 94.2348 226.736 96.4853 224.485C98.7357 222.235 100 219.183 100 216V196H144C147.183 196 150.235 194.736 152.485 192.485C154.736 190.235 156 187.183 156 184C156 180.817 154.736 177.765 152.485 175.515C150.235 173.264 147.183 172 144 172H100V156H148ZM100 52H148C158.609 52 168.783 56.2143 176.284 63.7157C183.786 71.2172 188 81.3913 188 92C188 102.609 183.786 112.783 176.284 120.284C168.783 127.786 158.609 132 148 132H100V52Z" fill="black"/>
</svg>
