<svg xmlns="http://www.w3.org/2000/svg" viewBox="0 0 21.02 21.19"><defs><style>.cls-1{fill:#007ac0;fill-rule:evenodd;}</style></defs><g id="Слой_2" data-name="Слой 2"><g id="Слой_1-2" data-name="Слой 1"><g id="whatsapp"><path class="cls-1" d="M10.7,0A10.32,10.32,0,0,0,1.86,15.65L0,21.19l5.71-1.83A10.32,10.32,0,1,0,10.7,0Zm0,18.91A8.49,8.49,0,0,1,6,17.49L2.67,18.55l1.08-3.19a8.59,8.59,0,1,1,7,3.55Zm4.84-6.24c-.26-.15-1.53-.83-1.77-.93s-.41-.15-.59.11-.72.83-.88,1-.31.19-.57.05a7,7,0,0,1-2.07-1.39,8.11,8.11,0,0,1-1.4-1.88A.38.38,0,0,1,8.4,9.1c.12-.12.27-.3.41-.45a1.67,1.67,0,0,0,.28-.43.47.47,0,0,0,0-.46c-.06-.13-.54-1.45-.74-2s-.43-.45-.58-.46-.33,0-.5,0a1,1,0,0,0-.72.3,3,3,0,0,0-1,2.17,5.16,5.16,0,0,0,1,2.76,10.87,10.87,0,0,0,4.35,4.15c2.64,1.15,2.65.8,3.14.77a2.62,2.62,0,0,0,1.82-1.18A2.07,2.07,0,0,0,16,13C16,12.88,15.8,12.81,15.54,12.67Z"/></g></g></g></svg>